<svg id="Layer_1" data-name="Layer 1" xmlns="http://www.w3.org/2000/svg" viewBox="0 0 207.42 89.7"><defs><style>.cls-1{fill:none;}.cls-2{fill:#fff;}.cls-3{stroke:#fff;stroke-miterlimit:10;}</style></defs><title>torpedoLauncher</title><path class="cls-1" d="M-4,38.61V-.95H203.47V38.61ZM187.34,5.53v1.9H193l0,.68h-3.73v5.59c.53.2.61-.06.6-.48,0-1.28,0-2.57,0-3.85l.64,0v1.9H193l-.42.82-.16-.06v1.74h1.78V4.34h-8.13V28.27h8.13v-9.4h-1.8v1.85c.64-.2.62.23.61.65h-2.53v1.9l-.64,0c0-1.32,0-2.58,0-3.85,0-.56,0-.56-.58-.42v5.58H193l0,.63h-5.7v1.9l-.6,0V5.56Zm-16,5.71H2.78c-.24,0-.48,0-.71,0-.51,0-.56.2-.38.65H166.3v9.5h5.08v6.88h14v-24h-14ZM124.33,22H12.18c-.52,0-.56.21-.37.66h7l.08,1.19H124.33Zm0-13.24H18.82V10H11.76c-.16.92.5.62.83.62H124.33Zm6.39-5.17h54.67V1.15H130.72ZM143.3,21.34c.16-.9-.5-.6-.83-.6H2.06c-.52,0-.56.21-.38.62ZM125,10.55h45.62V4.31H125Zm1.27,12.71V27h17V24.52h-9.45c-.39,0-.79,0-.52-.64h10c.22-.79-.32-.62-.66-.62H126.3ZM195,9.37V23.22h3.69V9.37ZM130.72,31.43h12.56V29H130.72ZM125,28.32h17.68c.64,0,.64,0,.5-.65H125.67v-5h17c.72,0,.72,0,.59-.59H125Zm41.34,1.29h18.38v1.24H166.92c-.64,0-.64,0-.51.59h19V29H167C166.65,29,166.12,28.81,166.37,29.61ZM189.2,16.95l.06,1.19h5V14.46h-5l-.05,1.22h-1.81v1.27ZM170.66,28.32V22c-1.34,0-2.63,0-3.92,0-.18,0-.35.25-.52.38l.13.25H170V27.7h-3.67l-.13.22c.17.13.34.38.52.38C168,28.34,169.32,28.32,170.66,28.32Zm-1.24-5.06c-.94,0-1.8,0-2.67,0-.54,0-.54.23-.34.66h2.37c0,.21,0,.49,0,.49-.8.07-1.61.12-2.51.17,0,1,.91.34,1.27.72,0,1-.95.18-1.22.61V27h3.1ZM186.18,29l-.19.22c.16.13.31.36.48.38a9.83,9.83,0,0,0,1.73,0c.16,0,.29-.29.56-.59ZM195,25.1h1.17V23.93H195Zm0-16.46h1.2V7.48H195ZM186.2,3l-.2.2c.15.14.3.38.46.39a9.78,9.78,0,0,0,1.73,0c.16,0,.3-.28.45-.44L188.48,3Zm2.46,16.42c-.09-.26-.13-.56-.22-.58a3.2,3.2,0,0,0-1,0c-.06,0-.06.33-.09.54Zm-1.42,4.47c.12.27.18.56.27.57a3.24,3.24,0,0,0,1-.05s0-.34,0-.52Zm.14-14c1.18.09,1.18.09,1.14-.53C187.4,9.27,187.4,9.27,187.38,9.92Zm0-1.28c1.19.13,1.19.13,1.07-.54C187.37,8,187.37,8,187.41,8.64Zm1.16,9.53c-.05-.62-.11-.69-.8-.59-.18,0-.33.26-.5.4l.15.18Zm-1.15,2.5c1.19.13,1.19.13,1.06-.54C187.37,20.05,187.37,20.05,187.42,20.67Zm3.16,0c1.19.13,1.19.13,1.07-.54C190.53,20.05,190.53,20.05,190.58,20.67Zm-3.22-7.51c.05.62.11.69.8.59.18,0,.33-.26.5-.4l-.15-.18Zm3.21-.71h1.14c.21-.76-.33-.55-.68-.59S190.37,12,190.57,12.45Zm-3.24,9.47c1.28.14,1.28.14,1.14-.58C188.12,21.57,187.36,20.95,187.33,21.92Zm1.33-9.44c-.09-.26-.13-.56-.22-.58a3.2,3.2,0,0,0-1,0c-.06,0-.06.33-.09.54Zm3.11.72c-1.28-.14-1.28-.14-1.14.59C191,13.55,191.73,14.18,191.76,13.2Zm-4.49-2.58c.09.26.13.56.22.58a3.2,3.2,0,0,0,1,0c.06,0,.06-.33.09-.54Zm1.38,4.4c-.09-.26-.13-.56-.22-.58a3.2,3.2,0,0,0-1,0c-.06,0-.06.33-.09.54Zm-.1,8.22c.16-.87-.46-.58-.78-.58-.17,0-.33.26-.5.4l.15.18Zm1.92-4.33c.14,1,.82.39,1.23.55C191.7,18.77,191.7,18.77,190.47,18.9Z" transform="translate(3.96 0.95)"/><path d="M171.36,11.23V4.31h14v24h-14V21.39H166.3v-9.5H1.68c-.18-.45-.13-.68.38-.65.24,0,.47,0,.71,0H171.36Zm5.2,5.68h1.23V15.68h-2v1.24Zm-7.74,2.54a3.3,3.3,0,0,0,0,.86c0,.18.28.32.56.62V19.47h-.6c.06-.27-.1-.57.4-.69.34-.08.58-.57.88-.87l1.23-1.23v-.82c-.46-.38-.85-.69-1.21-1s-.43-.44-.64-.66-.72-.7-1.06-1.06-.55-.63-.85-.93a5.5,5.5,0,0,0-.6-.45v9.18c.5-.43,1.06-.68,1.18-1.07S168.56,19.5,168.83,19.45Zm6.31-4.78-2.33-2.25-.16.15v7.77l2.49-2.38Zm-.2-2.07.2-.19c0-.89,0-1.78,0-2.67a.56.56,0,0,0-.17-.38c-.55-.47-1.15-.9-1.68-1.4a13.23,13.23,0,0,1-.78-1.08c-.07-.09-.32,0-.51,0V9.7ZM172,25.67l.18.22L175.11,23V20.15L175,20l-3,2.89Zm6.45-18.82c-.21.74.32.58.74.59h5.54V6.2h-7.45C177.25,6.76,177.25,6.76,178.45,6.85Zm6.31,18.31c-1.91,0-3.74,0-5.58,0a2.78,2.78,0,0,0-.9.37l.06.21c-1.1.08-1.1.08-1.07.63h7.48ZM175.8,13a3.42,3.42,0,0,1,.76.36,14.62,14.62,0,0,1,1.07,1.05c.29.3.56.63.85.93a6.31,6.31,0,0,0,.6.47V13.2l-.19.09a3.07,3.07,0,0,0-.45-.67c-.33-.29-.74-.5-1.09-.78s-.68-.48-.72-.76c-.1-.65-.44-.47-.82-.42Zm0,9c.29-.05.69-.06.7-.14.05-.36.19-.47.55-.59s.51-.53.77-.81l1.23-1.29V16.69l-3.25,3.15ZM182.1,9.35c.16.24.28.58.43.59.75.05,1.5,0,2.22,0V8.11h-5c0,1.05.88.32,1.21.71C180.95,9.77,181.77,9.14,182.1,9.35Zm-2.3,15.13h4.94v-1.8c-2.06-.2-2.36-.13-2.62.58h-1l-.22.61C179.79,23.91,179.79,23.91,179.8,24.48Zm-4.08,3,.2.2h8.83l.12-.22c-.18-.12-.37-.36-.55-.36q-4,0-8.06,0C176.07,27.07,175.89,27.32,175.72,27.45Zm9-21.93.19-.23c-.18-.13-.36-.36-.54-.37-2.69,0-5.38,0-8.06,0-.51,0-.56.21-.39.62Zm-4.9,12.91,1.85-1.76v-.75l-1.85-1.74Zm-7.8-.75-.23-.19c-.13.18-.35.36-.36.54,0,.73,0,1.47,0,2.21,0,.52.22.56.62.38ZM184.78,19l-.23-.19c-.13.18-.35.35-.37.54,0,.73,0,1.47,0,2.21,0,.51.2.57.62.39Zm-12.83-7-.17-.14c-.14.15-.4.29-.4.45a21.49,21.49,0,0,0,0,2.37c0,.16.28.31.43.47l.15-.16Zm12.83-1.22-.22-.19c-.13.16-.36.32-.37.49,0,.76,0,1.53,0,2.29,0,.54.23.54.62.36Zm0,4.44-.22-.2c-.13.16-.36.31-.38.48a9.81,9.81,0,0,0,0,1.73c0,.16.29.29.59.57Zm-1.84-4.5v1.77c.65.25.59-.17.6-.55C183.55,10.66,183.56,10.66,182.94,10.65ZM170.7,11.79c-.27.11-.57.17-.57.25a12.07,12.07,0,0,0,0,1.64,2.55,2.55,0,0,0,.53.06ZM183.51,20c-.26.11-.57.17-.58.24a12,12,0,0,0,0,1.64,2.44,2.44,0,0,0,.53.07Zm-13.41.75c.25-.08.57-.13.57-.2a11.82,11.82,0,0,0,0-1.64s-.33-.06-.54-.1ZM182.92,17c.27-.12.56-.18.57-.27a3.24,3.24,0,0,0-.05-1s-.34,0-.52,0Zm-1.17,4.91c.8-.07.41-.69.54-1.25C181.32,20.81,181.76,21.48,181.75,21.93Zm.49-11.28c-.87-.16-.58.46-.58.78,0,.17.26.33.4.5l.18-.15Z" transform="translate(3.96 0.95)"/><path d="M124.33,22v1.85H18.87l-.08-1.19h-7c-.19-.45-.15-.69.37-.66H124.33Zm-.66,1.25c.21-.75-.29-.61-.65-.61H103.16c-1.27,0-2.53,0-3.8,0-.52,0-.56.21-.38.62Z" transform="translate(3.96 0.95)"/><path d="M124.33,8.75V10.6H12.58c-.33,0-1,.3-.83-.62h7.06V8.75Zm-.67,1.2c.23-.77-.29-.61-.64-.61H99.44c-.46,0-.75.07-.42.62Z" transform="translate(3.96 0.95)"/><path d="M130.72,3.58V1.15h54.67V3.58Zm54-1.82-.45,0q-14.07,0-28.14,0c-.28,0-.55.26-.83.4l.07.23h-9.93c-.24.74.26.62.62.62h38c.2,0,.41,0,.64,0Z" transform="translate(3.96 0.95)"/><path d="M143.3,21.34H1.67c-.17-.4-.14-.65.38-.62H142.47C142.8,20.74,143.46,20.44,143.3,21.34Z" transform="translate(3.96 0.95)"/><path d="M125,10.55V4.31h45.62v6.23ZM170,5H125.69v5H170Z" transform="translate(3.96 0.95)"/><path d="M193,25.17l0-.63h-3.73V19c.57-.13.58-.13.58.42,0,1.26,0,2.53,0,3.85l.64,0,0,0,0,.6H193l0-.6,0,0,.6,0V21.38l-.6,0,0,0c0-.42,0-.85-.61-.65V18.87h1.8v9.4h-8.13V4.34h8.13v9.38h-1.78V12l.16.06.42-.82,0,0,.6,0V9.36l-.6,0,0,0,0-.6h-2.48l0,.6,0,0-.64,0c0,1.29,0,2.57,0,3.85,0,.42-.07.68-.6.48V8.1H193l0-.68,0,0,.6,0V5.56l-.6,0,0,0,0-.6h-5.65l0,.6,0,0-.6,0V27l.6,0,0,0,0,.6H193l0-.6,0,0,.6,0V25.18l-.6,0Z" transform="translate(3.96 0.95)"/><path d="M126.3,23.26h16.32c.34,0,.88-.17.66.62h-10c-.27.68.13.64.52.64h9.45V27h-17Zm.62,3.16c.58-.07,1.28.35,1.32-.64h1.08l.21-.59c.53-.12,1.25.29,1.23-.64,1.16-.06,1.16-.06,1.1-.61h-4.94Zm15-.65.19-.23c-.18-.13-.36-.37-.54-.37-2,0-4,0-6,0-.51,0-.56.21-.39.62Z" transform="translate(3.96 0.95)"/><path d="M195,9.37h3.69V23.22H195Zm3,3.81H195.6v2.47a2.15,2.15,0,0,0,.4,0c.11-.61.2-1.22.29-1.84C198,13.67,198,13.67,198,13.17Zm-2.4,6.93v2.48h1.17V21.45l-.46-.16C196,20.87,196.61,20.07,195.62,20.11Zm1.11.37.18.19H198V18.83c-1,0-.32.88-.71,1.13Zm.11-8H198V11.29h-1.2Zm1.22,2h-1.2v1.16h1.2ZM195.69,10l-.2.21c.16.14.3.37.47.39a9.76,9.76,0,0,0,1.73,0c.16,0,.3-.29.45-.44L198,10Zm1.11,6.36h-1.21l-.13.18,1.17,1.1.16-.14Zm.68,1.92c.26-.1.57-.15.58-.23a12,12,0,0,0,0-1.64,2.31,2.31,0,0,0-.54-.08Zm-1.9,1.14h1.36c-.3-.41-.52-.74-.77-1.05a.39.39,0,0,0-.24-.14,1.36,1.36,0,0,0-.35.06Zm2.59,3.25c-.23-.52.29-1.22-.78-1.33C197.65,21.83,197,22.55,198.16,22.65Zm-2-11.5c-.27.12-.56.18-.57.27a3.24,3.24,0,0,0,.05,1s.34,0,.52,0Z" transform="translate(3.96 0.95)"/><path d="M130.72,31.43V29h12.56v2.43Z" transform="translate(3.96 0.95)"/><path d="M125,28.32V22h18.19c.13.59.13.59-.59.59h-17v5h17.53c.14.64.14.65-.5.65H125Z" transform="translate(3.96 0.95)"/><path d="M166.37,29.61c-.25-.8.28-.65.63-.65h18.38v2.49h-19c-.13-.58-.13-.59.51-.59h17.83V29.61Z" transform="translate(3.96 0.95)"/><path d="M189.2,16.95h-1.81V15.68h1.81l.05-1.22h5v3.68h-5Zm4.41.6V15.09h-1.15v2.46Zm-3.13-2.4-.22-.19c-.13.16-.36.31-.38.48a9.84,9.84,0,0,0,0,1.73c0,.16.29.29.59.56Zm.67,2.29.21.2c.13-.16.37-.3.38-.47a9.81,9.81,0,0,0,0-1.73c0-.16-.29-.3-.59-.58Z" transform="translate(3.96 0.95)"/><path d="M170.66,28.32c-1.34,0-2.63,0-3.92,0-.18,0-.34-.25-.52-.38l.13-.22H170V22.64h-3.67l-.13-.25c.17-.13.34-.38.52-.38,1.29,0,2.57,0,3.92,0Z" transform="translate(3.96 0.95)"/><path d="M169.42,23.26V27h-3.1V25.92c.27-.44,1.25.37,1.22-.61-.36-.38-1.23.25-1.27-.72.9-.06,1.71-.1,2.51-.17,0,0,0-.28,0-.49h-2.37c-.2-.43-.2-.67.34-.66C167.62,23.27,168.48,23.26,169.42,23.26Zm-.65,3.09V25.21c-.76-.21-.55.33-.59.68S168.28,26.54,168.77,26.35Z" transform="translate(3.96 0.95)"/><path d="M187.34,27.07v-1.9H193l0,0v1.92l0,0h-5.72Zm.69-.69h1.86c-.19-1-.94-.45-1.4-.57S187.84,25.88,188,26.38Zm4.28-.55h-1.77c0,.62,0,.61,1.22.59C192.15,26.42,192.56,26.47,192.32,25.83Z" transform="translate(3.96 0.95)"/><path d="M193,7.43h-5.7V5.53l0,0H193l0,0V7.45Zm-2.62-1.23c.11.26.18.57.26.57a12,12,0,0,0,1.64,0,2.58,2.58,0,0,0,.06-.53Zm-2.5,0c.08.25.13.57.2.57a12,12,0,0,0,1.64,0s.06-.33.1-.54Z" transform="translate(3.96 0.95)"/><path d="M190.51,23.27v-1.9H193l0,0v1.92l0,0h-2.55Zm.72-.68c.35-.21,1.13.46,1.18-.66C191.92,22.19,191.2,21.55,191.23,22.59Z" transform="translate(3.96 0.95)"/><path d="M193,11.22h-2.53V9.32l0,0H193l0,0q0,1,0,1.92ZM191,10c.12.27.18.56.27.57a3.24,3.24,0,0,0,1-.05s0-.34,0-.52Z" transform="translate(3.96 0.95)"/><path d="M186.18,29h2.58c-.27.3-.4.58-.56.59a9.83,9.83,0,0,1-1.73,0c-.17,0-.32-.24-.48-.38Z" transform="translate(3.96 0.95)"/><path d="M195,25.1V23.93h1.17V25.1Z" transform="translate(3.96 0.95)"/><path d="M195,8.64V7.48h1.2V8.64Z" transform="translate(3.96 0.95)"/><path d="M186.2,3h2.28l.16.16c-.15.15-.29.42-.45.44a9.78,9.78,0,0,1-1.73,0c-.16,0-.31-.26-.46-.39Z" transform="translate(3.96 0.95)"/><path d="M188.65,19.44h-1.31c0-.21,0-.53.09-.54a3.2,3.2,0,0,1,1,0C188.52,18.88,188.56,19.19,188.65,19.44Z" transform="translate(3.96 0.95)"/><path d="M187.24,23.91h1.32c0,.19,0,.51,0,.52a3.24,3.24,0,0,1-1,.05C187.42,24.47,187.36,24.18,187.24,23.91Z" transform="translate(3.96 0.95)"/><path d="M187.38,9.92c0-.66,0-.66,1.14-.53C188.55,10,188.55,10,187.38,9.92Z" transform="translate(3.96 0.95)"/><path d="M187.41,8.64c0-.61,0-.61,1.07-.54C188.6,8.78,188.6,8.78,187.41,8.64Z" transform="translate(3.96 0.95)"/><path d="M188.57,18.17h-1.15l-.15-.18c.17-.14.32-.38.5-.4C188.46,17.48,188.52,17.54,188.57,18.17Z" transform="translate(3.96 0.95)"/><path d="M187.42,20.67c0-.61,0-.61,1.06-.54C188.61,20.8,188.61,20.8,187.42,20.67Z" transform="translate(3.96 0.95)"/><path d="M190.58,20.67c0-.61,0-.61,1.07-.54C191.77,20.8,191.77,20.8,190.58,20.67Z" transform="translate(3.96 0.95)"/><path d="M187.36,13.16h1.15l.15.18c-.17.14-.32.38-.5.4C187.47,13.85,187.41,13.78,187.36,13.16Z" transform="translate(3.96 0.95)"/><path d="M190.57,12.45c-.19-.5,0-.63.46-.59s.88-.18.68.59Z" transform="translate(3.96 0.95)"/><path d="M187.33,21.92c0-1,.8-.35,1.14-.58C188.6,22.07,188.6,22.07,187.33,21.92Z" transform="translate(3.96 0.95)"/><path d="M188.65,12.48h-1.31c0-.21,0-.53.09-.54a3.2,3.2,0,0,1,1,0C188.52,11.92,188.56,12.22,188.65,12.48Z" transform="translate(3.96 0.95)"/><path d="M191.76,13.2c0,1-.8.35-1.14.59C190.49,13.06,190.49,13.06,191.76,13.2Z" transform="translate(3.96 0.95)"/><path d="M187.27,10.62h1.31c0,.21,0,.53-.09.54a3.2,3.2,0,0,1-1,0C187.41,11.18,187.36,10.88,187.27,10.62Z" transform="translate(3.96 0.95)"/><path d="M188.65,15h-1.31c0-.21,0-.53.09-.54a3.2,3.2,0,0,1,1,0C188.52,14.45,188.56,14.76,188.65,15Z" transform="translate(3.96 0.95)"/><path d="M188.55,23.23h-1.13l-.15-.18c.17-.14.33-.4.5-.4C188.1,22.65,188.72,22.36,188.55,23.23Z" transform="translate(3.96 0.95)"/><path d="M190.47,18.9c1.23-.13,1.23-.13,1.23.55C191.29,19.28,190.61,19.88,190.47,18.9Z" transform="translate(3.96 0.95)"/><path class="cls-2" d="M168.83,19.45c-.27.05-.54-.08-.69.4s-.68.64-1.18,1.07V11.74a5.5,5.5,0,0,1,.6.45c.29.3.56.63.85.93s.71.71,1.06,1.06.41.46.64.66.75.63,1.21,1v.82l-1.23,1.23c-.29.3-.53.79-.88.87-.51.12-.35.42-.4.69Z" transform="translate(3.96 0.95)"/><path class="cls-2" d="M175.14,14.66v3.28l-2.49,2.38V12.56l.16-.15Z" transform="translate(3.96 0.95)"/><path class="cls-2" d="M174.94,12.59,172,9.7V6.83c.19,0,.44,0,.51,0A13.23,13.23,0,0,0,173.3,8c.52.5,1.12.93,1.68,1.4a.56.56,0,0,1,.17.38c0,.89,0,1.78,0,2.67Z" transform="translate(3.96 0.95)"/><path class="cls-2" d="M172,25.67V22.89L175,20l.16.14V23l-2.93,2.87Z" transform="translate(3.96 0.95)"/><path class="cls-2" d="M178.45,6.85c-1.2-.09-1.2-.09-1.17-.65h7.45V7.44h-5.54C178.78,7.43,178.25,7.59,178.45,6.85Z" transform="translate(3.96 0.95)"/><path class="cls-2" d="M184.77,25.16v1.22h-7.48c0-.55,0-.55,1.07-.63l-.06-.21a2.78,2.78,0,0,1,.9-.37C181,25.14,182.86,25.16,184.77,25.16Z" transform="translate(3.96 0.95)"/><path class="cls-2" d="M175.8,13V10.66c.39-.05.72-.24.82.42,0,.29.45.54.72.76s.75.49,1.09.78a3.07,3.07,0,0,1,.45.67l.19-.09v2.6a6.31,6.31,0,0,1-.6-.47c-.29-.3-.56-.63-.85-.93a14.62,14.62,0,0,0-1.07-1.05A3.42,3.42,0,0,0,175.8,13Z" transform="translate(3.96 0.95)"/><path class="cls-2" d="M175.81,22V19.84l3.25-3.15v2.51l-1.23,1.29c-.26.28-.46.71-.77.81s-.5.23-.55.59C176.5,22,176.1,22,175.81,22Z" transform="translate(3.96 0.95)"/><path class="cls-2" d="M182.1,9.35c-.34-.2-1.15.42-1.15-.52-.34-.4-1.22.34-1.21-.71h5V10c-.73,0-1.48,0-2.22,0C182.39,9.93,182.27,9.58,182.1,9.35Z" transform="translate(3.96 0.95)"/><path class="cls-2" d="M179.8,24.48c0-.57,0-.57,1.09-.61l.22-.61h1c.26-.71.56-.78,2.62-.58v1.8Z" transform="translate(3.96 0.95)"/><path class="cls-2" d="M175.72,27.45c.18-.13.35-.37.53-.38q4,0,8.06,0c.19,0,.37.23.55.36l-.12.22h-8.83Z" transform="translate(3.96 0.95)"/><path class="cls-2" d="M184.67,5.52h-8.8c-.17-.41-.13-.62.39-.62,2.69,0,5.38,0,8.06,0,.18,0,.36.24.54.37Z" transform="translate(3.96 0.95)"/><path class="cls-2" d="M179.77,18.43V14.18l1.85,1.74v.75Z" transform="translate(3.96 0.95)"/><path class="cls-2" d="M172,17.69v2.95c-.4.17-.63.13-.62-.38,0-.74,0-1.48,0-2.21,0-.19.24-.36.36-.54Z" transform="translate(3.96 0.95)"/><path class="cls-2" d="M184.78,19V21.9c-.41.18-.63.12-.62-.39,0-.74,0-1.48,0-2.21,0-.19.24-.36.37-.54Z" transform="translate(3.96 0.95)"/><path class="cls-2" d="M171.95,11.94v3l-.15.16c-.15-.16-.42-.3-.43-.47a21.49,21.49,0,0,1,0-2.37c0-.16.26-.3.4-.45Z" transform="translate(3.96 0.95)"/><path class="cls-2" d="M184.78,10.72v2.95c-.38.18-.63.18-.62-.36,0-.76,0-1.53,0-2.29,0-.17.24-.33.37-.49Z" transform="translate(3.96 0.95)"/><path class="cls-2" d="M184.78,15.15v2.58c-.3-.28-.58-.41-.59-.57a9.81,9.81,0,0,1,0-1.73c0-.17.25-.32.38-.48Z" transform="translate(3.96 0.95)"/><path class="cls-2" d="M182.94,10.65c.62,0,.62,0,.6,1.22,0,.38,0,.8-.6.55Z" transform="translate(3.96 0.95)"/><path class="cls-2" d="M170.7,11.79v1.95a2.55,2.55,0,0,1-.53-.06,12.07,12.07,0,0,1,0-1.64C170.13,12,170.43,11.9,170.7,11.79Z" transform="translate(3.96 0.95)"/><path class="cls-2" d="M183.51,20V22a2.44,2.44,0,0,1-.53-.07,12,12,0,0,1,0-1.64C182.94,20.19,183.25,20.13,183.51,20Z" transform="translate(3.96 0.95)"/><path class="cls-2" d="M170.1,20.77V18.83c.21,0,.54.05.54.1a11.82,11.82,0,0,1,0,1.64C170.67,20.64,170.35,20.69,170.1,20.77Z" transform="translate(3.96 0.95)"/><path d="M176.55,15.67h.66v1.23h-.65Z" transform="translate(3.96 0.95)"/><path class="cls-2" d="M176.55,15.67v1.24h-.74V15.67Z" transform="translate(3.96 0.95)"/><path class="cls-2" d="M182.92,17V15.7c.19,0,.51,0,.52,0a3.24,3.24,0,0,1,.05,1C183.48,16.84,183.19,16.9,182.92,17Z" transform="translate(3.96 0.95)"/><path class="cls-2" d="M177.21,16.91V15.68h.58v1.23Z" transform="translate(3.96 0.95)"/><path class="cls-2" d="M181.75,21.93c0-.45-.44-1.12.54-1.25C182.17,21.24,182.55,21.85,181.75,21.93Z" transform="translate(3.96 0.95)"/><path class="cls-2" d="M168.8,19.47h.6v1.46c-.28-.3-.51-.44-.56-.62a3.3,3.3,0,0,1,0-.86Z" transform="translate(3.96 0.95)"/><path class="cls-2" d="M182.24,10.64v1.13l-.18.15c-.14-.17-.4-.33-.4-.5C181.66,11.1,181.36,10.48,182.24,10.64Z" transform="translate(3.96 0.95)"/><path class="cls-2" d="M123.66,23.24H99c-.17-.41-.13-.63.38-.62,1.27,0,2.53,0,3.8,0H123C123.37,22.63,123.88,22.49,123.66,23.24Z" transform="translate(3.96 0.95)"/><path class="cls-2" d="M123.66,10H99c-.33-.55,0-.62.42-.62H123C123.36,9.34,123.89,9.18,123.66,10Z" transform="translate(3.96 0.95)"/><path class="cls-2" d="M184.77,1.77V3c-.23,0-.44,0-.64,0h-38c-.36,0-.87.12-.62-.62h9.93l-.07-.23c.28-.14.55-.4.83-.4q14.07,0,28.14,0Z" transform="translate(3.96 0.95)"/><path class="cls-2" d="M170,5v5H125.69V5ZM126.29,9.28h43.12V5.58H126.29Z" transform="translate(3.96 0.95)"/><path class="cls-2" d="M193,5.55h-5.72l0-.6H193Z" transform="translate(3.96 0.95)"/><path class="cls-2" d="M187.32,27H193l0,.6h-5.65Z" transform="translate(3.96 0.95)"/><path class="cls-2" d="M190.48,23.25H193l0,.6h-2.48Z" transform="translate(3.96 0.95)"/><path class="cls-2" d="M193,9.35h-2.55l0-.6H193Z" transform="translate(3.96 0.95)"/><path class="cls-2" d="M193,27.07V25.15l.6,0V27Z" transform="translate(3.96 0.95)"/><path class="cls-2" d="M193,11.24q0-1,0-1.92l.6,0v1.85Z" transform="translate(3.96 0.95)"/><path class="cls-2" d="M193,7.45V5.53l.6,0V7.41Z" transform="translate(3.96 0.95)"/><path class="cls-2" d="M193,23.27V21.35l.6,0v1.85Z" transform="translate(3.96 0.95)"/><path class="cls-2" d="M126.92,26.42V23.94h4.94c.05.55.05.55-1.1.61,0,.93-.71.52-1.23.64l-.21.59h-1.08C128.2,26.77,127.5,26.35,126.92,26.42Z" transform="translate(3.96 0.95)"/><path class="cls-2" d="M142,25.77h-6.75c-.17-.41-.12-.62.39-.62,2,0,4,0,6,0,.18,0,.36.24.54.37Z" transform="translate(3.96 0.95)"/><path class="cls-2" d="M198,13.17c0,.49,0,.49-1.73.63-.09.61-.18,1.23-.29,1.84a2.15,2.15,0,0,1-.4,0V13.17Z" transform="translate(3.96 0.95)"/><path class="cls-2" d="M195.62,20.11c1,0,.36.76.71,1.19l.46.16v1.13h-1.17Z" transform="translate(3.96 0.95)"/><path class="cls-2" d="M196.73,20.48l.6-.53c.39-.25-.33-1.11.71-1.13v1.85h-1.13Z" transform="translate(3.96 0.95)"/><path class="cls-2" d="M196.84,12.44V11.29H198v1.14Z" transform="translate(3.96 0.95)"/><path class="cls-2" d="M198.06,14.46v1.16h-1.2V14.46Z" transform="translate(3.96 0.95)"/><path class="cls-2" d="M195.69,10H198l.17.15c-.15.15-.28.43-.45.44a9.76,9.76,0,0,1-1.73,0c-.17,0-.31-.25-.47-.39Z" transform="translate(3.96 0.95)"/><path class="cls-2" d="M196.79,16.34v1.14l-.16.14-1.17-1.1.13-.18Z" transform="translate(3.96 0.95)"/><path class="cls-2" d="M197.47,18.26V16.31a2.31,2.31,0,0,1,.54.08A12,12,0,0,1,198,18C198,18.11,197.73,18.16,197.47,18.26Z" transform="translate(3.96 0.95)"/><path class="cls-2" d="M195.57,19.4V18.26a1.36,1.36,0,0,1,.35-.06.39.39,0,0,1,.24.14c.24.32.47.64.77,1.05Z" transform="translate(3.96 0.95)"/><path class="cls-2" d="M198.16,22.65c-1.14-.1-.51-.82-.78-1.33C198.45,21.43,197.93,22.13,198.16,22.65Z" transform="translate(3.96 0.95)"/><path class="cls-2" d="M196.17,11.14v1.32c-.19,0-.51,0-.52,0a3.24,3.24,0,0,1-.05-1C195.61,11.32,195.9,11.27,196.17,11.14Z" transform="translate(3.96 0.95)"/><path class="cls-2" d="M193.61,17.55h-1.15V15.09h1.15Z" transform="translate(3.96 0.95)"/><path class="cls-2" d="M190.48,15.15v2.58c-.3-.27-.58-.4-.59-.56a9.84,9.84,0,0,1,0-1.73c0-.17.24-.32.38-.48Z" transform="translate(3.96 0.95)"/><path class="cls-2" d="M191.14,17.44V14.85c.3.28.58.42.59.58a9.81,9.81,0,0,1,0,1.73c0,.17-.25.31-.38.47Z" transform="translate(3.96 0.95)"/><path class="cls-2" d="M168.77,26.35c-.5.19-.63,0-.59-.46s-.18-.88.59-.68Z" transform="translate(3.96 0.95)"/><path class="cls-2" d="M188,26.38c-.2-.5.05-.69.46-.57s1.21-.44,1.4.57Z" transform="translate(3.96 0.95)"/><path class="cls-2" d="M192.32,25.83c.25.64-.17.59-.55.59-1.21,0-1.21,0-1.22-.59Z" transform="translate(3.96 0.95)"/><path class="cls-2" d="M190.41,6.19h2a2.58,2.58,0,0,1-.06.53,12,12,0,0,1-1.64,0C190.59,6.76,190.53,6.45,190.41,6.19Z" transform="translate(3.96 0.95)"/><path class="cls-2" d="M187.92,6.19h1.94c0,.21-.05.54-.1.54a12,12,0,0,1-1.64,0C188,6.76,188,6.44,187.92,6.19Z" transform="translate(3.96 0.95)"/><path class="cls-2" d="M191.23,22.59c0-1,.69-.4,1.18-.66C192.36,23,191.58,22.37,191.23,22.59Z" transform="translate(3.96 0.95)"/><path class="cls-2" d="M191,10h1.32c0,.19,0,.51,0,.52a3.24,3.24,0,0,1-1,.05C191.22,10.55,191.16,10.26,191,10Z" transform="translate(3.96 0.95)"/><path d="M126.29,9.28V5.58h43.12v3.7Zm.65-3.09V8.66h5c0-.57,0-.52-.53-.61a3.89,3.89,0,0,1-.9-.39l.07-.23h-1l-.2-.56c-.52-.18-1.27.29-1.24-.68Zm31.88,1.9-.19.23c.18.13.36.36.54.37,3.06,0,6.11,0,9.17,0,.52,0,.56-.21.38-.62Zm-12.66,0-.19.23c.18.13.36.37.54.37,3.06,0,6.11,0,9.17,0,.51,0,.56-.21.39-.62Zm-12.82,0-.19.23c.18.13.36.37.54.37,3.06,0,6.11,0,9.17,0,.51,0,.56-.21.39-.62Zm34.08-.67.19-.23c-.18-.13-.36-.36-.54-.37-2,0-4,0-6,0-.52,0-.56.21-.38.62Zm-19.36-.6-.19.23c.18.13.36.37.54.37,2,0,4,0,6,0,.51,0,.56-.21.4-.62Zm-12.82,0-.19.23c.18.13.36.36.54.37,2,0,4,0,6,0,.51,0,.56-.21.39-.62Zm33.5.65c.15-1.31.15-1.31-.56-1.18C168.32,6.68,167.87,7.36,168.75,7.47Z" transform="translate(3.96 0.95)"/><path class="cls-2" d="M126.94,6.18h1.15c0,1,.72.5,1.24.68l.2.56h1l-.07.23a3.89,3.89,0,0,0,.9.39c.49.08.5,0,.53.61h-5Z" transform="translate(3.96 0.95)"/><path class="cls-2" d="M158.82,8.09h9.91c.17.41.13.62-.38.62-3.06,0-6.11,0-9.17,0-.18,0-.36-.24-.54-.37Z" transform="translate(3.96 0.95)"/><path class="cls-2" d="M146.16,8.09h9.91c.17.41.13.62-.39.62-3.06,0-6.11,0-9.17,0-.18,0-.36-.24-.54-.37Z" transform="translate(3.96 0.95)"/><path class="cls-2" d="M133.35,8.09h9.91c.17.41.13.62-.39.62-3.06,0-6.11,0-9.17,0-.18,0-.36-.24-.54-.37Z" transform="translate(3.96 0.95)"/><path class="cls-2" d="M167.43,7.42h-6.74c-.17-.41-.13-.62.38-.62,2,0,4,0,6,0,.18,0,.36.24.54.37Z" transform="translate(3.96 0.95)"/><path class="cls-2" d="M148.06,6.82h6.75c.17.41.11.62-.4.62-2,0-4,0-6,0-.18,0-.36-.24-.54-.37Z" transform="translate(3.96 0.95)"/><path class="cls-2" d="M135.25,6.82H142c.17.41.12.62-.39.62-2,0-4,0-6,0-.18,0-.36-.24-.54-.37Z" transform="translate(3.96 0.95)"/><path class="cls-2" d="M168.75,7.47c-.88-.11-.43-.79-.56-1.18C168.89,6.16,168.89,6.16,168.75,7.47Z" transform="translate(3.96 0.95)"/><polygon class="cls-3" points="169.46 19.45 169.58 83.57 163.96 89.2 11.71 89.2 6.46 83.57 6.46 37.45 11.96 31.95 147.96 31.95 147.96 21.95 5.46 21.95 11.71 13.7 169.46 13.7 169.46 19.45"/></svg>